<svg version="1.1" id="Layer_1" xmlns="http://www.w3.org/2000/svg" xmlns:xlink="http://www.w3.org/1999/xlink" x="0px" y="0px" viewBox="0 0 32 32" style="enable-background:new 0 0 32 32;" xml:space="preserve">
            <style type="text/css"> .st0{fill:#222160;} .st1{fill:#E61E2A;} </style><path class="st0" d="M26.3,11.1V3.2H3.2V20h3.1v3.9l3.9-3.9h1.7v4.8h9.9l3.8,3.9v-3.8h3.2V11.1H26.3z M9.8,19l-2.5,2.5V19H4.2V4.1
	h21.1V19H9.8z M27.8,23.9h-3.2v2.4l-2.5-2.4h-9.3V20h13.4v-7.9h1.6V23.9z"></path><rect x="6.4" y="8.4" class="st0" width="6.4" height="1"></rect><rect x="6.4" y="11.5" class="st0" width="12.7" height="1"></rect><rect x="8" y="14.8" class="st1" width="0.8" height="0.8"></rect><rect x="6.4" y="14.8" class="st1" width="0.8" height="0.8"></rect><rect x="9.5" y="14.8" transform="matrix(1.116986e-02 -0.9999 0.9999 1.116986e-02 -5.3763 24.9887)" class="st1" width="0.8" height="0.8"></rect>
           </svg>